<svg width="155" height="45" viewBox="0 0 155 45" fill="none" xmlns="http://www.w3.org/2000/svg">
<g filter="url(#filter0_d)">
<path d="M51.04 25.1162C50.9067 25.1162 50.7933 25.0695 50.7 24.9762C50.6067 24.8829 50.56 24.7695 50.56 24.6362V11.5962C50.56 11.4495 50.6067 11.3362 50.7 11.2562C50.7933 11.1629 50.9067 11.1162 51.04 11.1162H52.92C53.0667 11.1162 53.18 11.1629 53.26 11.2562C53.3533 11.3362 53.4 11.4495 53.4 11.5962V22.7162H59.74C59.8867 22.7162 60.0067 22.7629 60.1 22.8562C60.1933 22.9495 60.24 23.0629 60.24 23.1962V24.6362C60.24 24.7695 60.1933 24.8829 60.1 24.9762C60.0067 25.0695 59.8867 25.1162 59.74 25.1162H51.04ZM64.9611 25.3162C64.2811 25.3162 63.6544 25.1829 63.0811 24.9162C62.5211 24.6362 62.0744 24.2629 61.7411 23.7962C61.4211 23.3295 61.2611 22.8162 61.2611 22.2562C61.2611 21.3495 61.6278 20.6162 62.3611 20.0562C63.0944 19.4962 64.1011 19.1162 65.3811 18.9162L68.1211 18.5162V18.0962C68.1211 17.5229 67.9744 17.0895 67.6811 16.7962C67.3878 16.5029 66.9211 16.3562 66.2811 16.3562C65.8411 16.3562 65.4878 16.4362 65.2211 16.5962C64.9544 16.7562 64.7344 16.9229 64.5611 17.0962C64.4011 17.2562 64.2944 17.3629 64.2411 17.4162C64.1878 17.5762 64.0878 17.6562 63.9411 17.6562H62.3811C62.2611 17.6562 62.1544 17.6162 62.0611 17.5362C61.9811 17.4562 61.9411 17.3495 61.9411 17.2162C61.9544 16.8829 62.1144 16.5095 62.4211 16.0962C62.7411 15.6695 63.2278 15.3029 63.8811 14.9962C64.5344 14.6762 65.3411 14.5162 66.3011 14.5162C67.8744 14.5162 69.0211 14.8695 69.7411 15.5762C70.4611 16.2829 70.8211 17.2095 70.8211 18.3562V24.6362C70.8211 24.7695 70.7744 24.8829 70.6811 24.9762C70.6011 25.0695 70.4878 25.1162 70.3411 25.1162H68.6811C68.5478 25.1162 68.4344 25.0695 68.3411 24.9762C68.2478 24.8829 68.2011 24.7695 68.2011 24.6362V23.8562C67.9078 24.2829 67.4944 24.6362 66.9611 24.9162C66.4278 25.1829 65.7611 25.3162 64.9611 25.3162ZM65.6411 23.3962C66.3744 23.3962 66.9744 23.1562 67.4411 22.6762C67.9078 22.1962 68.1411 21.5029 68.1411 20.5962V20.1962L66.1411 20.5162C64.6078 20.7562 63.8411 21.2695 63.8411 22.0562C63.8411 22.4829 64.0144 22.8162 64.3611 23.0562C64.7211 23.2829 65.1478 23.3962 65.6411 23.3962ZM77.3464 25.3162C76.3331 25.3162 75.4864 25.1629 74.8064 24.8562C74.1264 24.5495 73.6197 24.1962 73.2864 23.7962C72.9664 23.3829 72.8064 23.0295 72.8064 22.7362C72.8064 22.6029 72.8464 22.4962 72.9264 22.4162C73.0197 22.3362 73.1264 22.2962 73.2464 22.2962H74.8864C74.9931 22.2962 75.0864 22.3495 75.1664 22.4562C75.2331 22.5095 75.3797 22.6362 75.6064 22.8362C75.8464 23.0362 76.1131 23.1962 76.4064 23.3162C76.7131 23.4229 77.0464 23.4762 77.4064 23.4762C77.9397 23.4762 78.3731 23.3762 78.7064 23.1762C79.0397 22.9629 79.2064 22.6629 79.2064 22.2762C79.2064 22.0095 79.1264 21.7962 78.9664 21.6362C78.8197 21.4629 78.5464 21.3095 78.1464 21.1762C77.7597 21.0295 77.1731 20.8695 76.3864 20.6962C75.2531 20.4562 74.4131 20.0895 73.8664 19.5962C73.3331 19.1029 73.0664 18.4495 73.0664 17.6362C73.0664 17.1029 73.2264 16.6029 73.5464 16.1362C73.8664 15.6562 74.3397 15.2695 74.9664 14.9762C75.6064 14.6695 76.3664 14.5162 77.2464 14.5162C78.1531 14.5162 78.9331 14.6629 79.5864 14.9562C80.2397 15.2362 80.7331 15.5762 81.0664 15.9762C81.4131 16.3762 81.5864 16.7295 81.5864 17.0362C81.5864 17.1562 81.5397 17.2629 81.4464 17.3562C81.3664 17.4362 81.2664 17.4762 81.1464 17.4762H79.6464C79.4997 17.4762 79.3864 17.4229 79.3064 17.3162C79.2131 17.2495 79.0597 17.1295 78.8464 16.9562C78.6464 16.7695 78.4197 16.6229 78.1664 16.5162C77.9131 16.4095 77.6064 16.3562 77.2464 16.3562C76.7531 16.3562 76.3731 16.4629 76.1064 16.6762C75.8397 16.8895 75.7064 17.1695 75.7064 17.5162C75.7064 17.7562 75.7664 17.9562 75.8864 18.1162C76.0197 18.2762 76.2797 18.4295 76.6664 18.5762C77.0531 18.7095 77.6331 18.8495 78.4064 18.9962C80.8064 19.4629 82.0064 20.5095 82.0064 22.1362C82.0064 23.0829 81.5931 23.8495 80.7664 24.4362C79.9531 25.0229 78.8131 25.3162 77.3464 25.3162ZM84.5505 25.1162C84.4171 25.1162 84.3038 25.0695 84.2105 24.9762C84.1171 24.8829 84.0705 24.7695 84.0705 24.6362V11.3962C84.0705 11.2495 84.1171 11.1362 84.2105 11.0562C84.3038 10.9629 84.4171 10.9162 84.5505 10.9162H86.2305C86.3771 10.9162 86.4905 10.9629 86.5705 11.0562C86.6638 11.1362 86.7105 11.2495 86.7105 11.3962V24.6362C86.7105 24.7695 86.6638 24.8829 86.5705 24.9762C86.4905 25.0695 86.3771 25.1162 86.2305 25.1162H84.5505ZM93.863 25.3162C92.3696 25.3162 91.183 24.8895 90.303 24.0362C89.4363 23.1829 88.9763 21.9695 88.923 20.3962L88.903 19.8962C88.903 18.2295 89.3363 16.9162 90.203 15.9562C91.083 14.9962 92.2963 14.5162 93.843 14.5162C95.4296 14.5162 96.6496 14.9962 97.503 15.9562C98.3696 16.9162 98.803 18.1962 98.803 19.7962V20.2162C98.803 20.3495 98.7563 20.4629 98.663 20.5562C98.5696 20.6495 98.4496 20.6962 98.303 20.6962H91.663V20.8562C91.6896 21.6029 91.8896 22.2229 92.263 22.7162C92.6496 23.1962 93.1763 23.4362 93.843 23.4362C94.603 23.4362 95.223 23.1295 95.703 22.5162C95.823 22.3695 95.9163 22.2829 95.983 22.2562C96.0496 22.2162 96.163 22.1962 96.323 22.1962H98.083C98.203 22.1962 98.303 22.2295 98.383 22.2962C98.4763 22.3629 98.523 22.4562 98.523 22.5762C98.523 22.8962 98.3296 23.2762 97.943 23.7162C97.5696 24.1429 97.0296 24.5162 96.323 24.8362C95.6163 25.1562 94.7963 25.3162 93.863 25.3162ZM96.043 18.9962V18.9562C96.043 18.1695 95.843 17.5429 95.443 17.0762C95.0563 16.5962 94.523 16.3562 93.843 16.3562C93.163 16.3562 92.6296 16.5962 92.243 17.0762C91.8563 17.5429 91.663 18.1695 91.663 18.9562V18.9962H96.043ZM104.885 25.3162C103.872 25.3162 103.025 25.1629 102.345 24.8562C101.665 24.5495 101.159 24.1962 100.825 23.7962C100.505 23.3829 100.345 23.0295 100.345 22.7362C100.345 22.6029 100.385 22.4962 100.465 22.4162C100.559 22.3362 100.665 22.2962 100.785 22.2962H102.425C102.532 22.2962 102.625 22.3495 102.705 22.4562C102.772 22.5095 102.919 22.6362 103.145 22.8362C103.385 23.0362 103.652 23.1962 103.945 23.3162C104.252 23.4229 104.585 23.4762 104.945 23.4762C105.479 23.4762 105.912 23.3762 106.245 23.1762C106.579 22.9629 106.745 22.6629 106.745 22.2762C106.745 22.0095 106.665 21.7962 106.505 21.6362C106.359 21.4629 106.085 21.3095 105.685 21.1762C105.299 21.0295 104.712 20.8695 103.925 20.6962C102.792 20.4562 101.952 20.0895 101.405 19.5962C100.872 19.1029 100.605 18.4495 100.605 17.6362C100.605 17.1029 100.765 16.6029 101.085 16.1362C101.405 15.6562 101.879 15.2695 102.505 14.9762C103.145 14.6695 103.905 14.5162 104.785 14.5162C105.692 14.5162 106.472 14.6629 107.125 14.9562C107.779 15.2362 108.272 15.5762 108.605 15.9762C108.952 16.3762 109.125 16.7295 109.125 17.0362C109.125 17.1562 109.079 17.2629 108.985 17.3562C108.905 17.4362 108.805 17.4762 108.685 17.4762H107.185C107.039 17.4762 106.925 17.4229 106.845 17.3162C106.752 17.2495 106.599 17.1295 106.385 16.9562C106.185 16.7695 105.959 16.6229 105.705 16.5162C105.452 16.4095 105.145 16.3562 104.785 16.3562C104.292 16.3562 103.912 16.4629 103.645 16.6762C103.379 16.8895 103.245 17.1695 103.245 17.5162C103.245 17.7562 103.305 17.9562 103.425 18.1162C103.559 18.2762 103.819 18.4295 104.205 18.5762C104.592 18.7095 105.172 18.8495 105.945 18.9962C108.345 19.4629 109.545 20.5095 109.545 22.1362C109.545 23.0829 109.132 23.8495 108.305 24.4362C107.492 25.0229 106.352 25.3162 104.885 25.3162ZM115.63 25.1162C115.403 25.1162 115.216 25.0629 115.07 24.9562C114.936 24.8362 114.843 24.6895 114.79 24.5162L110.75 11.7162L110.71 11.5362C110.71 11.4295 110.75 11.3362 110.83 11.2562C110.923 11.1629 111.03 11.1162 111.15 11.1162H113.77C113.97 11.1162 114.13 11.1762 114.25 11.2962C114.383 11.4029 114.47 11.5229 114.51 11.6562L117.23 20.6962L119.97 11.6562C120.01 11.5095 120.09 11.3829 120.21 11.2762C120.343 11.1695 120.51 11.1162 120.71 11.1162H123.33C123.45 11.1162 123.55 11.1629 123.63 11.2562C123.71 11.3362 123.75 11.4295 123.75 11.5362C123.75 11.6029 123.743 11.6629 123.73 11.7162L119.67 24.5162C119.63 24.6895 119.536 24.8362 119.39 24.9562C119.256 25.0629 119.076 25.1162 118.85 25.1162H115.63ZM126.075 25.1162C125.942 25.1162 125.822 25.0695 125.715 24.9762C125.622 24.8695 125.575 24.7495 125.575 24.6162V11.6362C125.575 11.4895 125.622 11.3695 125.715 11.2762C125.808 11.1695 125.928 11.1162 126.075 11.1162H131.735C133.468 11.1162 134.828 11.5095 135.815 12.2962C136.802 13.0829 137.295 14.2362 137.295 15.7562C137.295 17.2762 136.802 18.4162 135.815 19.1762C134.828 19.9229 133.468 20.2962 131.735 20.2962H129.455V24.6162C129.455 24.7495 129.408 24.8695 129.315 24.9762C129.222 25.0695 129.102 25.1162 128.955 25.1162H126.075ZM131.635 17.4362C132.182 17.4362 132.608 17.2962 132.915 17.0162C133.235 16.7229 133.395 16.2962 133.395 15.7362C133.395 15.2162 133.248 14.7962 132.955 14.4762C132.675 14.1562 132.235 13.9962 131.635 13.9962H129.395V17.4362H131.635ZM139.649 25.1162C139.516 25.1162 139.396 25.0695 139.289 24.9762C139.196 24.8695 139.149 24.7495 139.149 24.6162V11.6362C139.149 11.4895 139.196 11.3695 139.289 11.2762C139.382 11.1695 139.502 11.1162 139.649 11.1162H141.909C142.216 11.1162 142.442 11.2429 142.589 11.4962L147.309 18.9562V11.6362C147.309 11.4895 147.356 11.3695 147.449 11.2762C147.542 11.1695 147.662 11.1162 147.809 11.1162H150.349C150.496 11.1162 150.616 11.1695 150.709 11.2762C150.802 11.3695 150.849 11.4895 150.849 11.6362V24.5962C150.849 24.7429 150.802 24.8695 150.709 24.9762C150.616 25.0695 150.496 25.1162 150.349 25.1162H148.089C147.782 25.1162 147.556 24.9895 147.409 24.7362L142.709 17.5762V24.6162C142.709 24.7629 142.656 24.8829 142.549 24.9762C142.456 25.0695 142.336 25.1162 142.189 25.1162H139.649Z" fill="#0B132A"/>
<path d="M35.1473 13.6477L35.1255 13.626C35.1238 13.6247 35.1224 13.6231 35.1215 13.6212L21.5006 0L7.87983 13.6209C7.87826 13.6225 7.8758 13.6256 7.8758 13.6256L7.85333 13.6474C5.77053 15.7419 4.44759 18.4725 4.09482 21.4052C3.74205 24.3379 4.3797 27.3044 5.90639 29.8331C7.43309 32.3619 9.76122 34.3077 12.5207 35.3612C15.2802 36.4147 18.3126 36.5157 21.136 35.6477C21.3735 35.5751 21.6275 35.5751 21.8651 35.6477C24.6882 36.5153 27.7205 36.4144 30.4798 35.3607C33.2391 34.307 35.567 32.3613 37.0936 29.8328C38.6202 27.3042 39.2579 24.3379 38.9053 21.4054C38.5526 18.4728 37.2299 15.7422 35.1473 13.6477ZM12.7232 22.6298C12.6569 22.6961 12.6043 22.7749 12.5684 22.8615C12.5326 22.948 12.5141 23.0408 12.5141 23.1346C12.5384 25.5386 13.2178 27.8904 14.4792 29.9371C14.5079 29.9835 14.5211 30.0379 14.517 30.0922C14.513 30.1465 14.4918 30.1982 14.4566 30.2399C14.4213 30.2816 14.3738 30.311 14.3209 30.324C14.2679 30.337 14.2122 30.333 14.1616 30.3124C13.2133 29.9135 12.3518 29.3336 11.6253 28.6053C10.1365 27.1162 9.29946 25.097 9.2981 22.9912C9.29675 20.8855 10.1312 18.8652 11.6181 17.3743L21.5006 7.49273L31.3826 17.3743C32.8698 18.865 33.7045 20.8853 33.703 22.9912C33.7018 25.097 32.8647 27.1162 31.3757 28.6053C30.6492 29.3336 29.7877 29.9135 28.8396 30.3124C28.7889 30.333 28.7332 30.337 28.6802 30.324C28.6273 30.311 28.5798 30.2814 28.5445 30.2399C28.5093 30.1982 28.488 30.1465 28.484 30.092C28.4799 30.0377 28.4931 29.9833 28.5218 29.9369C29.7835 27.8904 30.4633 25.5386 30.4879 23.1346C30.4879 23.0408 30.4692 22.948 30.4332 22.8613C30.3971 22.7746 30.3444 22.696 30.2779 22.6296L25.6037 17.6717C25.5571 17.6329 25.4985 17.6116 25.4378 17.6116C25.3773 17.6116 25.3186 17.6329 25.2721 17.6717C25.2255 17.7104 25.1942 17.7644 25.1833 17.824C25.1724 17.8837 25.1828 17.945 25.2127 17.9978C27.0281 21.283 25.467 26.0017 22.8637 28.6053L22.85 28.6191C22.4907 28.9745 22.0056 29.1738 21.5002 29.1736C20.9948 29.1734 20.5098 28.9738 20.1508 28.6182L20.1382 28.6053C17.5339 26.0017 15.9736 21.2835 17.7893 17.9985C17.8192 17.9457 17.8296 17.8844 17.8187 17.8247C17.8079 17.7651 17.7764 17.7111 17.7299 17.6724C17.6834 17.6336 17.6247 17.6123 17.5642 17.6123C17.5036 17.6123 17.4449 17.6336 17.3984 17.6724L12.7232 22.6298Z" fill="#F53838"/>
</g>
<defs>
<filter id="filter0_d" x="0" y="0" width="154.849" height="44.2323" filterUnits="userSpaceOnUse" color-interpolation-filters="sRGB">
<feFlood flood-opacity="0" result="BackgroundImageFix"/>
<feColorMatrix in="SourceAlpha" type="matrix" values="0 0 0 0 0 0 0 0 0 0 0 0 0 0 0 0 0 0 127 0"/>
<feOffset dy="4"/>
<feGaussianBlur stdDeviation="2"/>
<feColorMatrix type="matrix" values="0 0 0 0 0 0 0 0 0 0 0 0 0 0 0 0 0 0 0.25 0"/>
<feBlend mode="normal" in2="BackgroundImageFix" result="effect1_dropShadow"/>
<feBlend mode="normal" in="SourceGraphic" in2="effect1_dropShadow" result="shape"/>
</filter>
</defs>
</svg>
